<svg width="1440" height="795" viewBox="0 0 1440 795" fill="none" xmlns="http://www.w3.org/2000/svg">
<g clip-path="url(#clip0)">
<rect width="1440" height="795" fill="white"/>
<rect width="1440" height="795" fill="#FF8C57"/>
<rect width="1440" height="795" fill="url(#paint0_linear)"/>
<g opacity="0.1">
<path d="M-74.5851 81.5H74.669C76.0864 81.5 77.3452 81.8319 78.2322 82.3426C79.1327 82.8611 79.561 83.5023 79.561 84.1047V118.555C79.561 119.157 79.1327 119.799 78.2322 120.317C77.3452 120.828 76.0864 121.16 74.669 121.16H-4.57764e-05H-74.5851C-76.0025 121.16 -77.2612 120.828 -78.1483 120.317C-79.0488 119.799 -79.4771 119.157 -79.4771 118.555V84.1047C-79.4771 83.5023 -79.0488 82.8611 -78.1483 82.3426C-77.2612 81.8319 -76.0025 81.5 -74.5851 81.5Z" stroke="black"/>
<path d="M167.5 134.054V167.946C167.5 168.53 167.077 169.159 166.175 169.67C165.287 170.173 164.027 170.5 162.609 170.5H88.038H87.999H13.3905C11.9721 170.5 10.7127 170.173 9.8253 169.67C8.92299 169.159 8.5 168.53 8.5 167.946V134.054C8.5 133.47 8.92299 132.841 9.8253 132.33C10.7127 131.827 11.9721 131.5 13.3905 131.5H88.039H162.609C164.028 131.5 165.287 131.827 166.175 132.33C167.077 132.841 167.5 133.47 167.5 134.054Z" stroke="black"/>
<path d="M-78.1743 219.67C-79.0517 219.173 -79.476 218.565 -79.499 217.995V217.946V184.054C-79.499 183.47 -79.0759 182.841 -78.1733 182.33C-77.2857 181.827 -76.0258 181.5 -74.607 181.5H-0.0214996H74.608C76.0268 181.5 77.2867 181.827 78.1743 182.33C79.0769 182.841 79.5 183.47 79.5 184.054V217.946C79.5 218.53 79.0769 219.159 78.1743 219.67C77.2867 220.173 76.0268 220.5 74.608 220.5H-0.0164948H-0.0214996H-74.608C-76.0268 220.5 -77.2866 220.173 -78.1743 219.67Z" stroke="black"/>
<path d="M250.608 181.5C252.027 181.5 253.287 181.827 254.174 182.33C255.077 182.841 255.5 183.47 255.5 184.054V217.946C255.5 218.53 255.077 219.159 254.174 219.67C253.287 220.173 252.027 220.5 250.608 220.5H175.981H101.392C99.9731 220.5 98.7133 220.173 97.8257 219.67C96.9231 219.159 96.5 218.53 96.5 217.946V184.054C96.5 183.47 96.9231 182.841 97.8257 182.33C98.7133 181.827 99.9731 181.5 101.392 181.5H175.981H250.608Z" stroke="black"/>
<path d="M13.3907 231.5H13.3907H87.997H88.036H162.609C164.028 231.5 165.287 231.827 166.175 232.33C167.077 232.841 167.5 233.47 167.5 234.054V267.946C167.5 268.53 167.077 269.159 166.175 269.67C165.287 270.173 164.028 270.5 162.609 270.5H88.036H87.997H13.3907C11.9723 270.5 10.7128 270.173 9.82537 269.67C8.923 269.159 8.5 268.53 8.5 267.946V234.054C8.5 233.47 8.92304 232.841 9.82539 232.329C10.7128 231.827 11.9723 231.5 13.3907 231.5Z" stroke="black"/>
<path d="M-74.6071 280.5H-74.607H-0.0214996H-0.0164948H74.608C76.0248 280.5 77.2829 280.834 78.1697 281.349C79.0691 281.872 79.5 282.519 79.5 283.131V317.869C79.5 318.481 79.0691 319.128 78.1697 319.651C77.2829 320.166 76.0248 320.5 74.608 320.5H-74.608C-76.0248 320.5 -77.2829 320.166 -78.1697 319.651C-79.0691 319.128 -79.5 318.481 -79.5 317.869V283.131C-79.5 282.519 -79.0689 281.871 -78.1692 281.349C-77.2822 280.834 -76.0238 280.5 -74.6071 280.5Z" stroke="black"/>
<path d="M250.608 320.5H101.392C99.9751 320.5 98.717 320.166 97.8303 319.651C96.9309 319.128 96.5 318.481 96.5 317.869V283.131C96.5 282.519 96.9309 281.872 97.8303 281.349C98.717 280.834 99.9751 280.5 101.392 280.5H175.981H250.608C252.025 280.5 253.283 280.834 254.17 281.349C255.069 281.872 255.5 282.519 255.5 283.131V317.869C255.5 318.481 255.069 319.128 254.17 319.651C253.283 320.166 252.025 320.5 250.608 320.5Z" stroke="black"/>
<path d="M77.8074 181.816C78.6242 182.198 79.1564 182.695 79.3841 183.197V218.803C79.1564 219.305 78.6242 219.802 77.8073 220.185C76.9572 220.583 75.8522 220.83 74.6301 220.83H49.9331V181.17H74.6301C75.8523 181.17 76.9572 181.418 77.8074 181.816Z" stroke="black"/>
<path d="M50.1104 121.16V81.5H74.6694C76.0869 81.5 77.3456 81.8319 78.2326 82.3427C79.133 82.8612 79.5614 83.5025 79.5614 84.1053V118.556C79.5614 119.158 79.1331 119.799 78.2326 120.318C77.3456 120.828 76.0869 121.16 74.6694 121.16H50.1104Z" stroke="black"/>
<path d="M226.049 220.83V181.17H250.608C252.025 181.17 253.284 181.502 254.171 182.013C255.071 182.531 255.5 183.173 255.5 183.775V218.226C255.5 218.828 255.072 219.469 254.171 219.988C253.284 220.499 252.025 220.83 250.608 220.83H226.049Z" stroke="black"/>
<path d="M226.049 320.5V280.84H250.608C252.025 280.84 253.284 281.172 254.171 281.682C255.071 282.201 255.5 282.842 255.5 283.445V317.895C255.5 318.498 255.072 319.139 254.171 319.657C253.284 320.168 252.025 320.5 250.608 320.5H226.049Z" stroke="black"/>
<path d="M138.06 170.995V131.335H162.619C164.037 131.335 165.295 131.667 166.182 132.178C167.083 132.696 167.511 133.338 167.511 133.94V168.391C167.511 168.993 167.083 169.634 166.182 170.153C165.295 170.663 164.037 170.995 162.619 170.995H138.06Z" stroke="black"/>
<path d="M138.06 270.665V231.005H162.619C164.036 231.005 165.295 231.337 166.182 231.848C167.083 232.366 167.511 233.007 167.511 233.61V268.06C167.511 268.663 167.083 269.304 166.182 269.822C165.295 270.333 164.037 270.665 162.619 270.665H138.06Z" stroke="black"/>
<path d="M79.5208 283.445V283.445V317.895C79.5208 318.498 79.0926 319.139 78.1921 319.657C77.305 320.168 76.0463 320.5 74.6288 320.5H50.0698V280.84H74.6288C76.0463 280.84 77.3053 281.172 78.1924 281.682C79.0931 282.201 79.5212 282.842 79.5208 283.445Z" stroke="black"/>
<path d="M51.6093 370.5H-23.0415H-97.6092C-99.0257 370.5 -100.283 370.166 -101.17 369.651C-102.069 369.128 -102.5 368.481 -102.5 367.869V333.131C-102.5 332.519 -102.069 331.872 -101.17 331.349C-100.283 330.834 -99.0257 330.5 -97.6092 330.5H51.6093C53.0257 330.5 54.2835 330.834 55.17 331.349C56.0692 331.872 56.5 332.519 56.5 333.131V367.869C56.5 368.481 56.0692 369.128 55.17 369.651C54.2835 370.166 53.0257 370.5 51.6093 370.5Z" stroke="black"/>
<path d="M78.4149 330.5H227.669C229.086 330.5 230.345 330.832 231.232 331.343C232.133 331.861 232.561 332.502 232.561 333.105V367.555C232.561 368.157 232.133 368.799 231.232 369.317C230.345 369.828 229.086 370.16 227.669 370.16H153H78.4149C76.9975 370.16 75.7388 369.828 74.8517 369.317C73.9512 368.799 73.5229 368.157 73.5229 367.555V333.105C73.5229 332.502 73.9512 331.861 74.8517 331.343C75.7388 330.832 76.9975 330.5 78.4149 330.5Z" stroke="black"/>
<path d="M144.5 383.054V416.946C144.5 417.53 144.077 418.159 143.175 418.67C142.287 419.173 141.028 419.5 139.609 419.5H65.0445H65.0385H-9.60944C-11.0278 419.5 -12.2873 419.173 -13.1747 418.67C-14.077 418.159 -14.5 417.53 -14.5 416.946V383.054C-14.5 382.47 -14.077 381.841 -13.1747 381.33C-12.2873 380.827 -11.0278 380.5 -9.60944 380.5H65.0385H65.0445H139.609C141.028 380.5 142.287 380.827 143.175 381.33C144.077 381.841 144.5 382.47 144.5 383.054Z" stroke="black"/>
<path d="M320.5 383.054V416.946C320.5 417.53 320.077 418.159 319.175 418.67C318.287 419.173 317.027 419.5 315.609 419.5H241.038H240.999H166.391C164.972 419.5 163.713 419.173 162.825 418.67C161.923 418.159 161.5 417.53 161.5 416.946V383.054C161.5 382.47 161.923 381.841 162.825 381.33C163.713 380.827 164.972 380.5 166.391 380.5H241.039H315.609C317.028 380.5 318.287 380.827 319.175 381.33C320.077 381.841 320.5 382.47 320.5 383.054Z" stroke="black"/>
<path d="M-102.499 433.054V433.054C-102.499 432.47 -102.076 431.841 -101.174 431.33C-100.286 430.827 -99.0267 430.5 -97.6083 430.5H-23.041H51.6093C53.0277 430.5 54.2872 430.827 55.1746 431.33C56.077 431.841 56.5 432.47 56.5 433.054V466.946C56.5 467.53 56.077 468.159 55.1747 468.67C54.2872 469.173 53.0277 469.5 51.6093 469.5H-23.036H-23.041H-97.6093C-99.0277 469.5 -100.287 469.173 -101.175 468.67C-102.077 468.159 -102.5 467.53 -102.5 466.946L-102.499 433.054Z" stroke="black"/>
<path d="M74.8257 468.67C73.9483 468.173 73.524 467.565 73.501 466.995V466.946V433.054C73.501 432.47 73.9241 431.841 74.8267 431.33C75.7143 430.827 76.9742 430.5 78.393 430.5H152.979H227.608C229.027 430.5 230.287 430.827 231.174 431.33C232.077 431.841 232.5 432.47 232.5 433.054V466.946C232.5 467.53 232.077 468.159 231.174 468.67C230.287 469.173 229.027 469.5 227.608 469.5H152.984H152.979H78.392C76.9732 469.5 75.7134 469.173 74.8257 468.67Z" stroke="black"/>
<path d="M403.608 430.5C405.027 430.5 406.287 430.827 407.174 431.33C408.077 431.841 408.5 432.47 408.5 433.054V466.946C408.5 467.53 408.077 468.159 407.174 468.67C406.287 469.173 405.027 469.5 403.608 469.5H328.981H254.392C252.973 469.5 251.713 469.173 250.826 468.67C249.923 468.159 249.5 467.53 249.5 466.946V433.054C249.5 432.47 249.923 431.841 250.826 431.33C251.713 430.827 252.973 430.5 254.392 430.5H328.981H403.608Z" stroke="black"/>
<path d="M-9.60838 480.5H-9.60828H65.036H65.042H139.609C141.028 480.5 142.287 480.827 143.175 481.33C144.077 481.841 144.5 482.47 144.5 483.054V516.946C144.5 517.53 144.077 518.159 143.175 518.67C142.287 519.173 141.028 519.5 139.609 519.5H65.042H65.036H-9.60928C-11.0277 519.5 -12.2872 519.173 -13.1746 518.67C-14.077 518.159 -14.5 517.53 -14.5 516.946V483.054C-14.5 482.47 -14.0768 481.841 -13.1742 481.329C-12.2865 480.827 -11.0268 480.5 -9.60838 480.5Z" stroke="black"/>
<path d="M166.391 480.5H166.391H240.997H241.036H315.609C317.028 480.5 318.287 480.827 319.175 481.33C320.077 481.841 320.5 482.47 320.5 483.054V516.946C320.5 517.53 320.077 518.159 319.175 518.67C318.287 519.173 317.028 519.5 315.609 519.5H241.036H240.997H166.391C164.972 519.5 163.713 519.173 162.825 518.67C161.923 518.159 161.5 517.53 161.5 516.946V483.054C161.5 482.47 161.923 481.841 162.825 481.329C163.713 480.827 164.972 480.5 166.391 480.5Z" stroke="black"/>
<path d="M-97.6084 529.5H-97.6083H-23.041H-23.036H51.6093C53.0257 529.5 54.2835 529.834 55.17 530.349C56.0692 530.872 56.5 531.519 56.5 532.131V566.869C56.5 567.481 56.0692 568.128 55.17 568.651C54.2835 569.166 53.0257 569.5 51.6093 569.5H-97.6093C-99.0257 569.5 -100.283 569.166 -101.17 568.651C-102.069 568.128 -102.5 567.481 -102.5 566.869V532.131C-102.5 531.519 -102.069 530.871 -101.17 530.349C-100.283 529.834 -99.0253 529.5 -97.6084 529.5Z" stroke="black"/>
<path d="M78.3929 529.5H78.393H152.979H152.984H227.608C229.025 529.5 230.283 529.834 231.17 530.349C232.069 530.872 232.5 531.519 232.5 532.131V566.869C232.5 567.481 232.069 568.128 231.17 568.651C230.283 569.166 229.025 569.5 227.608 569.5H78.392C76.9752 569.5 75.7171 569.166 74.8303 568.651C73.9309 568.128 73.5 567.481 73.5 566.869V532.131C73.5 531.519 73.9311 530.871 74.8308 530.349C75.7178 529.834 76.9762 529.5 78.3929 529.5Z" stroke="black"/>
<path d="M403.608 569.5H254.392C252.975 569.5 251.717 569.166 250.83 568.651C249.931 568.128 249.5 567.481 249.5 566.869V532.131C249.5 531.519 249.931 530.872 250.83 530.349C251.717 529.834 252.975 529.5 254.392 529.5H328.981H403.608C405.025 529.5 406.283 529.834 407.17 530.349C408.069 530.872 408.5 531.519 408.5 532.131V566.869C408.5 567.481 408.069 568.128 407.17 568.651C406.283 569.166 405.025 569.5 403.608 569.5Z" stroke="black"/>
<path d="M230.807 430.816C231.624 431.198 232.156 431.695 232.384 432.197V467.803C232.156 468.305 231.624 468.802 230.807 469.185C229.957 469.583 228.852 469.83 227.63 469.83H202.933V430.17H227.63C228.852 430.17 229.957 430.418 230.807 430.816Z" stroke="black"/>
<path d="M203.11 370.16V330.5H227.669C229.087 330.5 230.346 330.832 231.233 331.343C232.133 331.861 232.561 332.503 232.561 333.105V367.556C232.561 368.158 232.133 368.799 231.233 369.318C230.346 369.828 229.087 370.16 227.669 370.16H203.11Z" stroke="black"/>
<path d="M27.1328 370.16V330.5H51.6908C53.1083 330.5 54.367 330.832 55.254 331.343C56.1545 331.861 56.5828 332.503 56.5828 333.105V367.556C56.5828 368.158 56.1546 368.799 55.2541 369.318C54.367 369.828 53.1083 370.16 51.6908 370.16H27.1328Z" stroke="black"/>
<path d="M27.1328 569.5V529.84H51.6908C53.1083 529.84 54.367 530.172 55.254 530.682C56.1545 531.201 56.5828 531.842 56.5828 532.445V566.895C56.5828 567.498 56.1546 568.139 55.2541 568.657C54.367 569.168 53.1083 569.5 51.6908 569.5H27.1328Z" stroke="black"/>
<path d="M115.083 419.995V380.335H139.641C141.059 380.335 142.317 380.667 143.204 381.178C144.105 381.696 144.533 382.338 144.533 382.94V417.391C144.533 417.993 144.105 418.634 143.204 419.153C142.317 419.663 141.059 419.995 139.641 419.995H115.083Z" stroke="black"/>
<path d="M115.083 519.665V480.005H139.641C141.058 480.005 142.317 480.337 143.204 480.848C144.105 481.366 144.533 482.007 144.533 482.61V517.06C144.533 517.663 144.105 518.304 143.204 518.822C142.317 519.333 141.059 519.665 139.641 519.665H115.083Z" stroke="black"/>
<path d="M27.1328 469.83V430.17H51.6908C53.1083 430.17 54.367 430.502 55.254 431.013C56.1545 431.531 56.5828 432.173 56.5828 432.775V467.226C56.5828 467.828 56.1546 468.469 55.2541 468.988C54.367 469.499 53.1083 469.83 51.6908 469.83H27.1328Z" stroke="black"/>
<path d="M379.049 469.83V430.17H403.608C405.025 430.17 406.284 430.502 407.171 431.013C408.071 431.531 408.5 432.173 408.5 432.775V467.226C408.5 467.828 408.072 468.469 407.171 468.988C406.284 469.499 405.025 469.83 403.608 469.83H379.049Z" stroke="black"/>
<path d="M379.049 569.5V529.84H403.608C405.025 529.84 406.284 530.172 407.171 530.682C408.071 531.201 408.5 531.842 408.5 532.445V566.895C408.5 567.498 408.072 568.139 407.171 568.657C406.284 569.168 405.025 569.5 403.608 569.5H379.049Z" stroke="black"/>
<path d="M291.06 419.995V380.335H315.619C317.037 380.335 318.295 380.667 319.182 381.178C320.083 381.696 320.511 382.338 320.511 382.94V417.391C320.511 417.993 320.083 418.634 319.182 419.153C318.295 419.663 317.037 419.995 315.619 419.995H291.06Z" stroke="black"/>
<path d="M291.06 519.665V480.005H315.619C317.036 480.005 318.295 480.337 319.182 480.848C320.083 481.366 320.511 482.007 320.511 482.61V517.06C320.511 517.663 320.083 518.304 319.182 518.822C318.295 519.333 317.037 519.665 315.619 519.665H291.06Z" stroke="black"/>
<path d="M232.521 532.445V532.445V566.895C232.521 567.498 232.093 568.139 231.192 568.657C230.305 569.168 229.046 569.5 227.629 569.5H203.07V529.84H227.629C229.046 529.84 230.305 530.172 231.192 530.682C232.093 531.201 232.521 531.842 232.521 532.445Z" stroke="black"/>
<path d="M162.609 623.5H87.9585H13.3908C11.9743 623.5 10.7165 623.166 9.82999 622.651C8.93079 622.128 8.5 621.481 8.5 620.869V586.131C8.5 585.519 8.93079 584.872 9.82999 584.349C10.7165 583.834 11.9743 583.5 13.3908 583.5H162.609C164.026 583.5 165.283 583.834 166.17 584.349C167.069 584.872 167.5 585.519 167.5 586.131V620.869C167.5 621.481 167.069 622.128 166.17 622.651C165.283 623.166 164.026 623.5 162.609 623.5Z" stroke="black"/>
<path d="M189.415 583.5H338.669C340.086 583.5 341.345 583.832 342.232 584.343C343.133 584.861 343.561 585.502 343.561 586.105V620.555C343.561 621.157 343.133 621.799 342.232 622.317C341.345 622.828 340.086 623.16 338.669 623.16H264H189.415C187.997 623.16 186.739 622.828 185.852 622.317C184.951 621.799 184.523 621.157 184.523 620.555V586.105C184.523 585.502 184.951 584.861 185.852 584.343C186.739 583.832 187.997 583.5 189.415 583.5Z" stroke="black"/>
<path d="M79.555 635.94V670.391C79.555 670.993 79.1267 671.634 78.2262 672.153C77.3392 672.664 76.0805 672.995 74.663 672.995H13.392C11.9745 672.995 10.7158 672.664 9.82875 672.153C8.92825 671.634 8.5 670.993 8.5 670.391V635.94C8.5 635.338 8.92825 634.697 9.82875 634.178C10.7158 633.668 11.9745 633.336 13.392 633.336H74.663C76.0805 633.336 77.3392 633.668 78.2262 634.178C79.1267 634.697 79.555 635.338 79.555 635.94Z" stroke="black"/>
<path d="M255.5 636.054V669.946C255.5 670.53 255.077 671.159 254.175 671.67C253.287 672.173 252.028 672.5 250.609 672.5H176.044H176.038H101.391C99.9722 672.5 98.7127 672.173 97.8253 671.67C96.923 671.159 96.5 670.53 96.5 669.946V636.054C96.5 635.47 96.923 634.841 97.8253 634.33C98.7127 633.827 99.9722 633.5 101.391 633.5H176.038H176.044H250.609C252.028 633.5 253.287 633.827 254.175 634.33C255.077 634.841 255.5 635.47 255.5 636.054Z" stroke="black"/>
<path d="M431.5 636.054V669.946C431.5 670.53 431.077 671.159 430.175 671.67C429.287 672.173 428.027 672.5 426.609 672.5H352.038H351.999H277.391C275.972 672.5 274.713 672.173 273.825 671.67C272.923 671.159 272.5 670.53 272.5 669.946V636.054C272.5 635.47 272.923 634.841 273.825 634.33C274.713 633.827 275.972 633.5 277.391 633.5H352.039H426.609C428.028 633.5 429.287 633.827 430.175 634.33C431.077 634.841 431.5 635.47 431.5 636.054Z" stroke="black"/>
<path d="M8.501 686.054V686.054C8.501 685.47 8.924 684.841 9.82636 684.33C10.7138 683.827 11.9733 683.5 13.3917 683.5H87.959H162.609C164.028 683.5 165.287 683.827 166.175 684.33C167.077 684.841 167.5 685.47 167.5 686.054V719.946C167.5 720.53 167.077 721.159 166.175 721.67C165.287 722.173 164.028 722.5 162.609 722.5H87.964H87.959H13.3907C11.9723 722.5 10.7128 722.173 9.82536 721.67C8.923 721.159 8.5 720.53 8.5 719.946L8.501 686.054Z" stroke="black"/>
<path d="M185.826 721.67C184.948 721.173 184.524 720.565 184.501 719.995V719.946V686.054C184.501 685.47 184.924 684.841 185.827 684.33C186.714 683.827 187.974 683.5 189.393 683.5H263.979H338.608C340.027 683.5 341.287 683.827 342.174 684.33C343.077 684.841 343.5 685.47 343.5 686.054V719.946C343.5 720.53 343.077 721.159 342.174 721.67C341.287 722.173 340.027 722.5 338.608 722.5H263.984H263.979H189.392C187.973 722.5 186.713 722.173 185.826 721.67Z" stroke="black"/>
<path d="M514.608 683.5C516.027 683.5 517.287 683.827 518.174 684.33C519.077 684.841 519.5 685.47 519.5 686.054V719.946C519.5 720.53 519.077 721.159 518.174 721.67C517.287 722.173 516.027 722.5 514.608 722.5H439.981H365.392C363.973 722.5 362.713 722.173 361.826 721.67C360.923 721.159 360.5 720.53 360.5 719.946V686.054C360.5 685.47 360.923 684.841 361.826 684.33C362.713 683.827 363.973 683.5 365.392 683.5H439.981H514.608Z" stroke="black"/>
<path d="M79.5 736.054V769.946C79.5 770.53 79.0771 771.159 78.1754 771.671C77.2885 772.173 76.0298 772.5 74.6122 772.5H13.3879C11.9703 772.5 10.7115 772.173 9.82463 771.67C8.92285 771.159 8.5 770.53 8.5 769.946V736.054C8.5 735.47 8.92285 734.841 9.82463 734.33C10.7115 733.827 11.9703 733.5 13.3879 733.5H74.6121C76.0297 733.5 77.2885 733.827 78.1754 734.33C79.0771 734.841 79.5 735.47 79.5 736.054Z" stroke="black"/>
<path d="M101.392 733.5H101.392H176.036H176.042H250.609C252.028 733.5 253.287 733.827 254.175 734.33C255.077 734.841 255.5 735.47 255.5 736.054V769.946C255.5 770.53 255.077 771.159 254.175 771.67C253.287 772.173 252.028 772.5 250.609 772.5H176.042H176.036H101.391C99.9723 772.5 98.7128 772.173 97.8254 771.67C96.923 771.159 96.5 770.53 96.5 769.946V736.054C96.5 735.47 96.9232 734.841 97.8258 734.329C98.7135 733.827 99.9732 733.5 101.392 733.5Z" stroke="black"/>
<path d="M277.391 733.5H277.391H351.997H352.036H426.609C428.028 733.5 429.287 733.827 430.175 734.33C431.077 734.841 431.5 735.47 431.5 736.054V769.946C431.5 770.53 431.077 771.159 430.175 771.67C429.287 772.173 428.028 772.5 426.609 772.5H352.036H351.997H277.391C275.972 772.5 274.713 772.173 273.825 771.67C272.923 771.159 272.5 770.53 272.5 769.946V736.054C272.5 735.47 272.923 734.841 273.825 734.329C274.713 733.827 275.972 733.5 277.391 733.5Z" stroke="black"/>
<path d="M13.3916 782.5H13.3917H87.959H87.964H162.609C164.026 782.5 165.283 782.834 166.17 783.349C167.069 783.872 167.5 784.519 167.5 785.131V819.869C167.5 820.481 167.069 821.128 166.17 821.651C165.283 822.166 164.026 822.5 162.609 822.5H13.3907C11.9743 822.5 10.7165 822.166 9.82998 821.651C8.93079 821.128 8.5 820.481 8.5 819.869V785.131C8.5 784.519 8.93085 783.871 9.83008 783.349C10.7167 782.834 11.9747 782.5 13.3916 782.5Z" stroke="black"/>
<path d="M189.393 782.5H189.393H263.979H263.984H338.608C340.025 782.5 341.283 782.834 342.17 783.349C343.069 783.872 343.5 784.519 343.5 785.131V819.869C343.5 820.481 343.069 821.128 342.17 821.651C341.283 822.166 340.025 822.5 338.608 822.5H189.392C187.975 822.5 186.717 822.166 185.83 821.651C184.931 821.128 184.5 820.481 184.5 819.869V785.131C184.5 784.519 184.931 783.871 185.831 783.349C186.718 782.834 187.976 782.5 189.393 782.5Z" stroke="black"/>
<path d="M514.608 822.5H365.392C363.975 822.5 362.717 822.166 361.83 821.651C360.931 821.128 360.5 820.481 360.5 819.869V785.131C360.5 784.519 360.931 783.872 361.83 783.349C362.717 782.834 363.975 782.5 365.392 782.5H439.981H514.608C516.025 782.5 517.283 782.834 518.17 783.349C519.069 783.872 519.5 784.519 519.5 785.131V819.869C519.5 820.481 519.069 821.128 518.17 821.651C517.283 822.166 516.025 822.5 514.608 822.5Z" stroke="black"/>
<path d="M341.807 683.816C342.624 684.198 343.156 684.695 343.384 685.197V720.803C343.156 721.305 342.624 721.802 341.807 722.185C340.957 722.583 339.852 722.83 338.63 722.83H313.933V683.17H338.63C339.852 683.17 340.957 683.418 341.807 683.816Z" stroke="black"/>
<path d="M314.11 623.16V583.5H338.669C340.087 583.5 341.346 583.832 342.233 584.343C343.133 584.861 343.561 585.503 343.561 586.105V620.556C343.561 621.158 343.133 621.799 342.233 622.318C341.346 622.828 340.087 623.16 338.669 623.16H314.11Z" stroke="black"/>
<path d="M138.133 623.16V583.5H162.691C164.108 583.5 165.367 583.832 166.254 584.343C167.154 584.861 167.583 585.503 167.583 586.105V620.556C167.583 621.158 167.155 621.799 166.254 622.318C165.367 622.828 164.108 623.16 162.691 623.16H138.133Z" stroke="black"/>
<path d="M138.133 822.5V782.84H162.691C164.108 782.84 165.367 783.172 166.254 783.682C167.154 784.201 167.583 784.842 167.583 785.445V819.895C167.583 820.498 167.155 821.139 166.254 821.657C165.367 822.168 164.108 822.5 162.691 822.5H138.133Z" stroke="black"/>
<path d="M226.083 672.995V633.335H250.641C252.059 633.335 253.317 633.667 254.204 634.178C255.105 634.696 255.533 635.338 255.533 635.94V670.391C255.533 670.993 255.105 671.634 254.204 672.153C253.317 672.663 252.059 672.995 250.641 672.995H226.083Z" stroke="black"/>
<path d="M226.083 772.665V733.005H250.641C252.058 733.005 253.317 733.337 254.204 733.848C255.105 734.366 255.533 735.007 255.533 735.61V770.06C255.533 770.663 255.105 771.304 254.204 771.822C253.317 772.333 252.059 772.665 250.641 772.665H226.083Z" stroke="black"/>
<path d="M138.133 722.83V683.17H162.691C164.108 683.17 165.367 683.502 166.254 684.013C167.154 684.531 167.583 685.173 167.583 685.775V720.226C167.583 720.828 167.155 721.469 166.254 721.988C165.367 722.499 164.108 722.83 162.691 722.83H138.133Z" stroke="black"/>
<path d="M490.049 722.83V683.17H514.608C516.025 683.17 517.284 683.502 518.171 684.013C519.071 684.531 519.5 685.173 519.5 685.775V720.226C519.5 720.828 519.072 721.469 518.171 721.988C517.284 722.499 516.025 722.83 514.608 722.83H490.049Z" stroke="black"/>
<path d="M490.049 822.5V782.84H514.608C516.025 782.84 517.284 783.172 518.171 783.682C519.071 784.201 519.5 784.842 519.5 785.445V819.895C519.5 820.498 519.072 821.139 518.171 821.657C517.284 822.168 516.025 822.5 514.608 822.5H490.049Z" stroke="black"/>
<path d="M402.06 672.995V633.335H426.619C428.037 633.335 429.295 633.667 430.182 634.178C431.083 634.696 431.511 635.338 431.511 635.94V670.391C431.511 670.993 431.083 671.634 430.182 672.153C429.295 672.663 428.037 672.995 426.619 672.995H402.06Z" stroke="black"/>
<path d="M402.06 772.665V733.005H426.619C428.036 733.005 429.295 733.337 430.182 733.848C431.083 734.366 431.511 735.007 431.511 735.61V770.06C431.511 770.663 431.083 771.304 430.182 771.822C429.295 772.333 428.037 772.665 426.619 772.665H402.06Z" stroke="black"/>
<path d="M50.105 772.665V733.005H74.663C76.0804 733.005 77.3391 733.337 78.2262 733.848C79.1267 734.366 79.555 735.007 79.555 735.61V770.06C79.555 770.663 79.1267 771.304 78.2262 771.822C77.3392 772.333 76.0805 772.665 74.663 772.665H50.105Z" stroke="black"/>
<path d="M50.105 672.995V633.335H74.663C76.0805 633.335 77.3392 633.667 78.2262 634.178C79.1267 634.696 79.555 635.338 79.555 635.94V670.391C79.555 670.993 79.1267 671.634 78.2262 672.153C77.3392 672.663 76.0805 672.995 74.663 672.995H50.105Z" stroke="black"/>
<path d="M343.521 785.445V785.445V819.895C343.521 820.498 343.093 821.139 342.192 821.657C341.305 822.168 340.046 822.5 338.629 822.5H314.07V782.84H338.629C340.046 782.84 341.305 783.172 342.192 783.682C343.093 784.201 343.521 784.842 343.521 785.445Z" stroke="black"/>
</g>
</g>
<defs>
<linearGradient id="paint0_linear" x1="-1.64086e-05" y1="72.5" x2="1440" y2="787" gradientUnits="userSpaceOnUse">
<stop offset="0.0108569" stop-color="#EC6A34"/>
<stop offset="1" stop-color="#FF8C57"/>
</linearGradient>
<clipPath id="clip0">
<rect width="1440" height="795" fill="white"/>
</clipPath>
</defs>
</svg>
