<svg width="49" height="49" viewBox="0 0 49 49" fill="none" xmlns="http://www.w3.org/2000/svg">
<path d="M12.0224 36.1452C5.54904 29.3169 5.83772 18.4958 12.6659 12.0224C19.4942 5.549 30.3154 5.83768 36.7887 12.6659C43.2621 19.4941 42.9734 30.3153 36.1452 36.7887C29.317 43.2621 18.4958 42.9734 12.0224 36.1452ZM35.513 13.8754C29.7062 7.75031 20.0004 7.49139 13.8754 13.2981C7.75035 19.1049 7.49143 28.8107 13.2982 34.9357C19.1049 41.0608 28.8107 41.3197 34.9358 35.5129C41.0608 29.7062 41.3197 20.0004 35.513 13.8754Z" fill="#BDBDBD" stroke="white" stroke-width="0.4"/>
<path d="M29.148 31.3983L18.7555 20.436C18.609 20.2815 18.5522 20.0392 18.6148 19.7453C18.6772 19.4525 18.8558 19.1297 19.1445 18.856C19.4333 18.5823 19.7651 18.4211 20.0608 18.3745C20.3576 18.3276 20.5966 18.3972 20.7431 18.5517L31.1356 29.514C31.2821 29.6685 31.3389 29.9108 31.2763 30.2047C31.2139 30.4975 31.0353 30.8203 30.7466 31.094C30.4578 31.3677 30.126 31.5289 29.8303 31.5756C29.5334 31.6224 29.2945 31.5528 29.148 31.3983Z" fill="#BDBDBD" stroke="white" stroke-width="0.4"/>
<path d="M17.7174 30.7465C17.4436 30.4577 17.2825 30.1259 17.2358 29.8302C17.189 29.5334 17.2586 29.2945 17.4131 29.148L28.3753 18.7554C28.5299 18.6089 28.7722 18.5522 29.0661 18.6147C29.3589 18.6771 29.6816 18.8557 29.9554 19.1445C30.2291 19.4332 30.3903 19.765 30.4369 20.0607C30.4837 20.3576 30.4142 20.5965 30.2596 20.743L19.2974 31.1356C19.1429 31.282 18.9006 31.3388 18.6067 31.2762C18.3139 31.2139 17.9911 31.0352 17.7174 30.7465Z" fill="#BDBDBD" stroke="white" stroke-width="0.4"/>
</svg>
