<svg width="425" height="298" viewBox="0 0 425 298" fill="none" xmlns="http://www.w3.org/2000/svg">
<g clip-path="url(#clip0)">
<path d="M341.301 277.164C338.543 287.659 328.876 294.218 328.876 294.218C328.876 294.218 323.683 283.761 326.441 273.266C329.2 262.771 338.866 256.212 338.866 256.212C338.866 256.212 344.06 266.669 341.301 277.164Z" fill="#3F3D56"/>
<path d="M337.117 274.944C329.391 282.57 328.526 294.212 328.526 294.212C328.526 294.212 340.189 293.489 347.915 285.863C355.642 278.237 356.506 266.595 356.506 266.595C356.506 266.595 344.844 267.318 337.117 274.944Z" fill="#6C63FF"/>
<path d="M57.1637 237.463H71.7145L107.572 223.445C107.572 223.445 133.036 213.062 130.957 232.791C128.878 252.519 125.241 278.997 125.241 278.997C125.241 278.997 113.808 273.806 107.572 275.363C101.336 276.921 105.493 243.693 105.493 243.693C105.493 243.693 54.5653 268.095 49.8883 264.98C45.2112 261.865 44.1719 240.059 44.1719 240.059L57.1637 237.463Z" fill="#2F2E41"/>
<path opacity="0.1" d="M57.1637 237.463H71.7145L107.572 223.445C107.572 223.445 133.036 213.062 130.957 232.791C128.878 252.519 125.241 278.997 125.241 278.997C125.241 278.997 113.808 273.806 107.572 275.363C101.336 276.921 105.493 243.693 105.493 243.693C105.493 243.693 54.5653 268.095 49.8883 264.98C45.2112 261.865 44.1719 240.059 44.1719 240.059L57.1637 237.463Z" fill="black"/>
<path d="M80.0887 191.939L97.6982 217.215L138.752 251.481C138.752 251.481 176.688 260.307 171.492 266.537C166.295 272.767 134.595 260.307 134.595 260.307C134.595 260.307 87.3048 226.041 85.7458 223.445C84.1868 220.849 67.0376 196.448 67.0376 196.448L80.0887 191.939Z" fill="#A0616A"/>
<path opacity="0.1" d="M80.0887 191.939L97.6982 217.215L138.752 251.481C138.752 251.481 176.688 260.307 171.492 266.537C166.295 272.767 134.595 260.307 134.595 260.307C134.595 260.307 87.3048 226.041 85.7458 223.445C84.1868 220.849 67.0376 196.448 67.0376 196.448L80.0887 191.939Z" fill="black"/>
<path d="M69.636 171.528L81.0688 193.852C81.0688 193.852 78.4704 204.755 74.313 205.793C70.1557 206.832 52.4868 192.295 52.4868 192.295L69.636 171.528Z" fill="#D0CDE1"/>
<path opacity="0.1" d="M69.636 171.528L81.0688 193.852C81.0688 193.852 78.4704 204.755 74.313 205.793C70.1557 206.832 52.4868 192.295 52.4868 192.295L69.636 171.528Z" fill="black"/>
<path d="M209.111 225.904L212.488 239.822C212.526 239.977 212.52 240.14 212.471 240.292L197.152 288.12C197.091 288.309 196.967 288.472 196.801 288.581C196.634 288.69 196.436 288.739 196.238 288.72C196.039 288.7 195.854 288.613 195.712 288.474C195.57 288.334 195.481 288.15 195.458 287.953L193.339 269.321C193.325 269.197 193.338 269.072 193.376 268.953L207.438 225.84C207.497 225.66 207.612 225.504 207.768 225.396C207.923 225.288 208.11 225.233 208.299 225.241C208.488 225.248 208.67 225.317 208.816 225.436C208.963 225.556 209.066 225.72 209.111 225.904Z" fill="#2F2E41"/>
<path d="M207.869 227.08L210.987 239.021L197.475 282.632L194.357 269.133L207.869 227.08Z" fill="#F2F2F2"/>
<path d="M139.792 291.977C140.311 293.534 193.838 291.458 194.357 290.939C194.81 290.288 195.194 289.592 195.501 288.862C195.989 287.823 196.436 286.785 196.436 286.785L194.357 269.974L141.351 268.095C141.351 268.095 140.026 282.341 139.755 288.862C139.688 290.508 139.688 291.665 139.792 291.977Z" fill="#2F2E41"/>
<path opacity="0.1" d="M187.601 272.248L188.64 286.785H165.255V272.248H187.601Z" fill="black"/>
<path opacity="0.1" d="M157.461 276.921L157.6 276.893L156.941 283.151H143.949V276.921H157.461Z" fill="black"/>
<path opacity="0.1" d="M139.792 291.977C140.311 293.535 193.838 291.458 194.357 290.939C194.81 290.288 195.194 289.592 195.501 288.862H139.755C139.688 290.508 139.688 291.665 139.792 291.977Z" fill="black"/>
<path d="M77.4311 164.259C90.3464 164.259 100.816 153.799 100.816 140.896C100.816 127.993 90.3464 117.533 77.4311 117.533C64.5158 117.533 54.0459 127.993 54.0459 140.896C54.0459 153.799 64.5158 164.259 77.4311 164.259Z" fill="#A0616A"/>
<path d="M75.8719 161.663C75.8719 161.663 68.0768 175.162 66.5178 182.43C64.9588 189.699 43.1326 167.893 43.1326 167.893L40.2744 160.365C40.2744 160.365 60.8014 150.761 59.2424 142.973C57.6834 135.185 75.8719 161.663 75.8719 161.663Z" fill="#A0616A"/>
<path d="M80.0297 202.159L101.336 230.195L152.264 268.095C152.264 268.095 189.161 275.882 180.846 281.593C172.531 287.304 148.626 276.402 148.626 276.402C148.626 276.402 97.1789 248.885 86.2658 237.463C75.3526 226.041 55.0854 206.832 55.0854 206.832L80.0297 202.159Z" fill="#A0616A"/>
<path d="M51.4475 245.77L57.6836 255.634L94.901 243.937C103.067 241.37 112.022 242.315 119.265 246.873C125.761 250.962 129.918 257.452 120.564 267.056C101.856 286.266 89.3836 275.882 89.3836 275.882C89.3836 275.882 26.5033 305.475 16.1099 290.939C5.71643 276.402 5.19678 269.133 5.19678 269.133C5.19678 269.133 45.2115 244.213 51.4475 245.77Z" fill="#2F2E41"/>
<path d="M129.398 280.036C129.398 280.036 146.028 290.939 126.28 296.13C106.532 301.322 91.9817 294.054 91.9817 294.054C91.9817 294.054 74.8325 294.054 74.8325 285.228C74.8325 276.402 80.5489 275.363 80.5489 275.363L98.2177 277.959C98.2177 277.959 119.524 272.248 129.398 280.036Z" fill="#D0CDE1"/>
<path d="M96.6151 135.019C98.2068 135.728 99.7851 136.567 101.516 136.773C103.246 136.979 105.217 136.375 106.035 134.838C106.478 134.008 106.528 133.032 106.549 132.091C106.611 129.241 106.405 126.159 104.597 123.952C103.446 122.548 101.766 121.663 100.575 120.293C99.721 119.311 99.153 118.122 98.5413 116.974C96.2245 112.627 92.7942 108.449 88.0268 107.195C86.036 106.672 83.9476 106.698 81.8893 106.727L69.8837 106.896C67.9409 106.923 65.9681 106.955 64.1082 107.517C60.244 108.684 57.4304 111.931 54.8535 115.035C52.9256 117.358 50.9927 119.705 49.5458 122.354C47.4714 126.219 46.4225 130.551 46.499 134.936C46.4829 136.06 46.6283 137.181 46.9306 138.265C47.2843 139.259 47.7225 140.22 48.2404 141.139C50.4919 145.557 51.8287 151.076 49.2931 155.337C53.6977 153.54 58.0556 151.183 60.9611 147.419C62.2609 145.735 63.2802 143.764 65.0124 142.528C66.7446 141.292 69.5671 141.185 70.6785 142.999C71.0605 143.732 71.2572 144.548 71.2515 145.375C71.3326 146.736 71.3304 148.15 71.9081 149.386C72.4858 150.621 73.8619 151.618 75.1758 151.248C77.4383 150.611 77.2217 147.142 78.9644 145.566C80.2879 144.369 82.3297 144.598 84.03 144.055C86.0111 143.422 87.4975 141.707 88.3445 139.809C88.9882 138.367 88.9789 134.592 90.1971 133.811C91.7248 132.831 95.199 134.388 96.6151 135.019Z" fill="#2F2E41"/>
<path d="M38.4182 157.903C39.4702 157.622 40.5778 157.625 41.6284 157.911C44.9643 158.805 52.4424 161.174 54.0458 164.778C56.1245 169.451 63.3999 176.719 63.3999 176.719C63.3999 176.719 73.2737 186.584 71.195 193.333C69.1163 200.082 61.3212 207.87 61.3212 207.87C61.3212 207.87 63.3999 240.059 53.0065 248.366C42.6131 256.673 38.4557 250.962 38.4557 258.75C38.4557 266.537 6.23606 290.939 0 275.882C0 275.882 3.11803 247.847 2.07869 237.982C1.05433 228.26 2.55393 167.603 38.4182 157.903Z" fill="#D0CDE1"/>
<path d="M55.085 171.009C55.085 171.009 86.785 194.372 81.0686 204.236C81.0686 204.236 61.8407 213.581 57.6834 213.062C53.526 212.543 37.4162 194.372 33.2588 192.814C29.1014 191.256 27.0227 163.221 55.085 171.009Z" fill="#D0CDE1"/>
<path d="M196.714 119.345C210.893 119.345 222.387 107.862 222.387 93.6968C222.387 79.5319 210.893 68.049 196.714 68.049C182.536 68.049 171.042 79.5319 171.042 93.6968C171.042 107.862 182.536 119.345 196.714 119.345Z" fill="#F2F2F2"/>
<path d="M408.754 60.3872H264.891V30.3123H408.754V60.3872ZM265.525 59.754H408.12V30.9455H265.525V59.754Z" fill="#3F3D56"/>
<path d="M398.297 36.3273H255.068V65.769H398.297V36.3273Z" fill="#6C63FF"/>
<path d="M164.526 8.23103C165.751 8.23103 166.744 7.23886 166.744 6.01496C166.744 4.79106 165.751 3.79889 164.526 3.79889C163.301 3.79889 162.308 4.79106 162.308 6.01496C162.308 7.23886 163.301 8.23103 164.526 8.23103Z" fill="#6C63FF"/>
<path d="M172.131 8.23103C173.356 8.23103 174.349 7.23886 174.349 6.01496C174.349 4.79106 173.356 3.79889 172.131 3.79889C170.906 3.79889 169.913 4.79106 169.913 6.01496C169.913 7.23886 170.906 8.23103 172.131 8.23103Z" fill="#6C63FF"/>
<path d="M179.736 8.23103C180.961 8.23103 181.954 7.23886 181.954 6.01496C181.954 4.79106 180.961 3.79889 179.736 3.79889C178.511 3.79889 177.518 4.79106 177.518 6.01496C177.518 7.23886 178.511 8.23103 179.736 8.23103Z" fill="#6C63FF"/>
<path d="M425 173.485H158.188V0H425V173.485ZM158.822 172.851H424.366V0.633156H158.822V172.851Z" fill="#3F3D56"/>
<path d="M424.683 9.60339H158.505V10.2365H424.683V9.60339Z" fill="#3F3D56"/>
<path d="M165.16 7.5979C164.658 7.5979 164.168 7.44937 163.751 7.17108C163.334 6.89279 163.009 6.49725 162.817 6.03447C162.626 5.57169 162.575 5.06247 162.673 4.57119C162.771 4.07991 163.012 3.62864 163.367 3.27444C163.722 2.92025 164.173 2.67904 164.665 2.58132C165.157 2.4836 165.666 2.53375 166.13 2.72544C166.593 2.91713 166.989 3.24174 167.267 3.65823C167.546 4.07472 167.695 4.56437 167.695 5.06528C167.694 5.73673 167.426 6.38046 166.951 6.85525C166.476 7.33004 165.832 7.59712 165.16 7.5979ZM165.16 3.16581C164.784 3.16581 164.416 3.27721 164.103 3.48593C163.791 3.69464 163.547 3.9913 163.403 4.33839C163.259 4.68547 163.221 5.06739 163.295 5.43585C163.368 5.80431 163.549 6.14276 163.815 6.4084C164.081 6.67405 164.42 6.85496 164.789 6.92825C165.157 7.00154 165.54 6.96392 165.887 6.82016C166.235 6.67639 166.531 6.43293 166.74 6.12056C166.949 5.8082 167.061 5.44096 167.061 5.06528C167.06 4.56169 166.86 4.07889 166.503 3.7228C166.147 3.3667 165.664 3.16639 165.16 3.16581Z" fill="#3F3D56"/>
<path d="M172.765 7.5979C172.263 7.5979 171.773 7.44937 171.356 7.17108C170.939 6.89279 170.614 6.49725 170.422 6.03447C170.231 5.57169 170.18 5.06247 170.278 4.57119C170.376 4.07991 170.617 3.62864 170.972 3.27444C171.327 2.92025 171.778 2.67904 172.27 2.58132C172.762 2.4836 173.271 2.53375 173.735 2.72544C174.198 2.91713 174.594 3.24174 174.872 3.65823C175.151 4.07472 175.3 4.56437 175.3 5.06528C175.299 5.73673 175.031 6.38046 174.556 6.85525C174.081 7.33004 173.437 7.59712 172.765 7.5979ZM172.765 3.16581C172.388 3.16581 172.021 3.27721 171.708 3.48593C171.396 3.69464 171.152 3.9913 171.008 4.33839C170.864 4.68547 170.826 5.06739 170.9 5.43585C170.973 5.80431 171.154 6.14276 171.42 6.4084C171.686 6.67405 172.025 6.85496 172.394 6.92825C172.762 7.00154 173.145 6.96392 173.492 6.82016C173.84 6.67639 174.136 6.43293 174.345 6.12056C174.554 5.8082 174.666 5.44096 174.666 5.06528C174.665 4.56169 174.465 4.07889 174.108 3.7228C173.752 3.3667 173.269 3.16639 172.765 3.16581Z" fill="#3F3D56"/>
<path d="M180.37 7.5979C179.868 7.5979 179.378 7.44936 178.961 7.17108C178.544 6.89279 178.219 6.49725 178.027 6.03447C177.836 5.5717 177.785 5.06247 177.883 4.57119C177.981 4.07991 178.222 3.62864 178.577 3.27444C178.931 2.92025 179.383 2.67904 179.875 2.58132C180.367 2.4836 180.876 2.53375 181.34 2.72544C181.803 2.91713 182.199 3.24173 182.477 3.65822C182.756 4.07471 182.905 4.56437 182.905 5.06527C182.904 5.73673 182.636 6.38046 182.161 6.85525C181.686 7.33004 181.042 7.59712 180.37 7.5979ZM180.37 3.16581C179.993 3.16581 179.626 3.27721 179.313 3.48593C179.001 3.69464 178.757 3.9913 178.613 4.33838C178.469 4.68546 178.431 5.06738 178.505 5.43584C178.578 5.8043 178.759 6.14276 179.025 6.4084C179.291 6.67405 179.63 6.85496 179.999 6.92825C180.367 7.00154 180.75 6.96392 181.097 6.82016C181.444 6.67639 181.741 6.43293 181.95 6.12056C182.159 5.8082 182.271 5.44096 182.271 5.06528C182.27 4.56169 182.07 4.07889 181.713 3.7228C181.357 3.36671 180.874 3.1664 180.37 3.16581Z" fill="#3F3D56"/>
<path d="M242.391 9.91992H241.757V173.414H242.391V9.91992Z" fill="#3F3D56"/>
<path d="M318.602 90.3038H272.021V96.6353H318.602V90.3038Z" fill="#F2F2F2"/>
<path d="M391.801 90.3038H345.219V96.6353H391.801V90.3038Z" fill="#F2F2F2"/>
<path d="M321.454 93.7862H274.239V86.8215H321.454V93.7862ZM274.873 93.153H320.82V87.4546H274.873V93.153Z" fill="#3F3D56"/>
<path d="M318.602 139.373H272.021V145.705H318.602V139.373Z" fill="#F2F2F2"/>
<path d="M321.454 142.856H274.239V135.891H321.454V142.856ZM274.873 142.223H320.82V136.524H274.873V142.223Z" fill="#3F3D56"/>
<path d="M391.959 114.205H272.179V120.537H391.959V114.205Z" fill="#F2F2F2"/>
<path d="M394.811 118.321H274.397V111.356H394.811V118.321ZM275.031 117.688H394.177V111.989H275.031V117.688Z" fill="#3F3D56"/>
<path d="M394.653 93.7862H347.438V86.8215H394.653V93.7862ZM348.071 93.153H394.019V87.4546H348.071V93.153Z" fill="#3F3D56"/>
<path d="M201.059 112.637C195.903 112.637 190.863 111.109 186.577 108.248C182.29 105.386 178.949 101.319 176.976 96.5604C175.003 91.8017 174.487 86.5655 175.493 81.5137C176.498 76.462 178.981 71.8217 182.627 68.1796C186.272 64.5375 190.917 62.0571 195.973 61.0523C201.03 60.0474 206.271 60.5632 211.034 62.5343C215.798 64.5053 219.869 67.8433 222.733 72.1259C225.597 76.4086 227.126 81.4436 227.126 86.5944C227.118 93.4989 224.369 100.118 219.483 105.001C214.596 109.883 207.97 112.629 201.059 112.637ZM201.059 61.3411C196.06 61.3411 191.172 62.8221 187.016 65.597C182.859 68.3719 179.619 72.3159 177.706 76.9303C175.793 81.5448 175.292 86.6224 176.267 91.521C177.243 96.4197 179.65 100.919 183.185 104.451C186.72 107.983 191.224 110.388 196.128 111.362C201.031 112.337 206.113 111.837 210.732 109.925C215.351 108.014 219.299 104.777 222.076 100.624C224.854 96.4715 226.336 91.589 226.336 86.5944C226.329 79.8991 223.663 73.4802 218.924 68.746C214.186 64.0117 207.761 61.3486 201.059 61.3411Z" fill="#3F3D56"/>
<path d="M407.227 293.75H295.454V294.539H407.227V293.75Z" fill="#3F3D56"/>
</g>
<defs>
<clipPath id="clip0">
<rect width="425" height="298" fill="white"/>
</clipPath>
</defs>
</svg>
