<svg width="427" height="210" viewBox="0 0 427 210" fill="none" xmlns="http://www.w3.org/2000/svg">
<path opacity="0.2" d="M159.427 6.75769H171.179V18.4937H159.427V6.75769Z" fill="#6C63FF"/>
<path d="M143.365 6.75769H155.116V18.4937H143.365V6.75769Z" fill="#6C63FF"/>
<path opacity="0.2" d="M127.306 6.75769H139.057V18.4937H127.306V6.75769Z" fill="#6C63FF"/>
<path opacity="0.7" d="M111.242 6.75769H122.994V18.4937H111.242V6.75769Z" fill="#6C63FF"/>
<path opacity="0.4" d="M159.427 21.6221H171.179V33.358H159.427V21.6221Z" fill="#6C63FF"/>
<path opacity="0.2" d="M143.365 21.6221H155.116V33.358H143.365V21.6221Z" fill="#6C63FF"/>
<path opacity="0.2" d="M127.306 21.6221H139.057V33.358H127.306V21.6221Z" fill="#6C63FF"/>
<path opacity="0.2" d="M111.242 21.6221H122.994V33.358H111.242V21.6221Z" fill="#6C63FF"/>
<path opacity="0.2" d="M175.491 36.4908H187.243V48.2268H175.491V36.4908Z" fill="#6C63FF"/>
<path d="M159.427 36.4908H171.179V48.2268H159.427V36.4908Z" fill="#6C63FF"/>
<path opacity="0.2" d="M143.365 36.4908H155.116V48.2268H143.365V36.4908Z" fill="#6C63FF"/>
<path opacity="0.2" d="M127.306 36.4908H139.057V48.2268H127.306V36.4908Z" fill="#6C63FF"/>
<path opacity="0.2" d="M111.242 36.4908H122.994V48.2268H111.242V36.4908Z" fill="#6C63FF"/>
<path opacity="0.2" d="M159.427 51.3552H171.179V63.0912H159.427V51.3552Z" fill="#6C63FF"/>
<path opacity="0.2" d="M143.365 51.3552H155.116V63.0912H143.365V51.3552Z" fill="#6C63FF"/>
<path opacity="0.2" d="M127.306 51.3552H139.057V63.0912H127.306V51.3552Z" fill="#6C63FF"/>
<path opacity="0.2" d="M111.242 51.3552H122.994V63.0912H111.242V51.3552Z" fill="#6C63FF"/>
<path opacity="0.2" d="M159.427 66.2241H171.179V77.9601H159.427V66.2241Z" fill="#6C63FF"/>
<path opacity="0.2" d="M143.365 66.2241H155.116V77.9601H143.365V66.2241Z" fill="#6C63FF"/>
<path opacity="0.2" d="M127.306 66.2241H139.057V77.9601H127.306V66.2241Z" fill="#6C63FF"/>
<path opacity="0.2" d="M111.242 66.2241H122.994V77.9601H111.242V66.2241Z" fill="#6C63FF"/>
<path opacity="0.2" d="M95.1835 66.2241H106.935V77.9601H95.1835V66.2241Z" fill="#6C63FF"/>
<path d="M138.421 109.4C129.55 109.4 122.358 102.218 122.358 93.3581C122.358 84.4983 129.55 77.316 138.421 77.316C147.293 77.316 154.485 84.4983 154.485 93.3581C154.485 102.218 147.293 109.4 138.421 109.4Z" fill="#767D9F"/>
<path d="M139.254 72.95C137.651 79.9367 136.291 86.9755 135.173 94.0665C134.837 96.1735 134.537 98.3956 135.302 100.388C135.942 102.048 137.246 103.346 138.269 104.8C139.291 106.253 140.065 108.117 139.443 109.782C138.821 111.447 137.006 112.358 135.274 112.827C130.318 114.162 125.034 113.191 120.1 111.746C117.866 111.172 115.725 110.286 113.738 109.115C111.647 107.79 109.933 105.95 108.358 104.054C101.167 95.3454 96.4588 84.893 92.0272 74.505C94.8748 74.7638 97.7431 74.3423 100.395 73.2751C103.047 72.208 105.407 70.5259 107.28 68.3679C109.095 66.2379 110.426 63.2705 109.403 60.6666C112.402 62.309 115.963 62.4194 119.193 63.542C121.195 64.3058 123.123 65.2529 124.951 66.3713C127.156 67.6441 129.349 68.9414 131.529 70.2633C134.021 71.7631 136.357 73.0973 139.254 72.95Z" fill="#AE6E79"/>
<path d="M105.658 84.9944C108.473 90.4644 112.135 95.7228 117.364 98.98C122.592 102.237 129.631 103.12 134.869 99.9001C137.449 98.3267 139.402 95.9344 141.655 93.9194C143.907 91.9044 146.722 90.1792 149.749 90.4414C153.084 90.7312 155.696 93.3305 157.93 95.8194C161.32 99.601 164.596 103.544 166.996 108.02C171.602 116.623 172.694 126.68 172.492 136.433C172.289 146.186 170.875 155.889 170.842 165.642C170.796 177.64 172.832 189.541 174.892 201.36C155.958 199.032 137.002 204.12 118.027 206.048C105.884 207.295 93.6488 207.267 81.4412 207.235C79.2945 207.235 77.0096 207.18 75.2222 205.993C74.1297 205.197 73.2462 204.149 72.6471 202.938C70.9611 199.833 70.2839 196.29 69.814 192.789C68.6209 183.947 68.584 174.995 68.5518 166.07C68.4689 144.447 68.3906 122.746 71.1407 101.294C71.8179 96.0172 72.684 90.7128 74.7109 85.7764C76.7378 80.8401 80.0454 76.2994 84.6704 73.6541C87.6417 71.9519 94.5287 68.9891 98.0297 70.7051C101.959 72.6189 103.774 81.3323 105.658 84.9944Z" fill="#767D9F"/>
<path d="M104.258 146.053C104.972 132.711 107.879 118.472 101.692 106.631C100.172 103.723 105.626 100.093 103.94 97.2777C101.882 93.8449 100.322 90.1384 99.3057 86.2686C98.9556 84.9391 98.6746 83.5313 99.0063 82.1971C99.6189 79.7635 102.028 78.3143 104.074 76.8329C106.331 75.1951 107.492 70.2036 108.22 67.503C108.947 64.8025 102.429 68.0551 99.8078 67.0936C96.1686 65.7641 91.5435 66.6013 87.9135 67.9493C85.8866 68.6946 83.6846 68.759 81.524 68.8142C77.3274 68.9246 73.1169 69.0304 68.9525 68.5152C67.0822 68.2805 65.2073 67.9263 63.3278 68.0321C58.5323 68.3035 54.3633 71.5791 51.5256 75.4528C48.6879 79.3264 46.8821 83.8395 44.5557 88.0352C42.6163 91.5316 40.3038 94.8348 38.65 98.4738C37.1851 101.694 36.2592 105.154 35.3424 108.595L32.9792 117.423C32.5658 118.686 32.3696 120.01 32.3988 121.338C32.5186 122.751 33.1451 124.067 33.7808 125.323C36.1847 129.978 39.0671 134.37 42.3814 138.429C47.352 144.516 53.3867 150.004 56.3395 157.292C57.4912 160.13 58.1315 163.148 58.7166 166.157C61.0754 178.19 62.7518 190.348 63.7378 202.57C69.1205 200.082 74.7628 198.199 80.5613 196.953C83.4517 196.335 86.3735 195.874 89.3139 195.573C91.889 195.306 95.2104 195.812 97.6611 195.113C101.761 193.949 102.212 187.025 102.834 183.4C103.829 177.626 104.028 171.751 104.064 165.918C104.11 159.284 103.903 152.663 104.258 146.053Z" fill="#D0CDE1"/>
<path d="M194.295 121.104C192.356 132.145 190.218 143.219 186.003 153.593C186.109 153.694 186.215 153.786 186.321 153.878C186.694 154.196 187.081 154.495 187.487 154.798C188.431 155.461 189.468 156.022 190.251 156.887C190.547 157.218 190.781 157.6 190.942 158.014C191.086 158.337 191.161 158.688 191.161 159.042C191.161 159.397 191.086 159.747 190.942 160.07C193.139 161.041 195.691 160.742 198.156 160.65C200.279 160.572 202.339 160.65 204.043 161.814C206.411 163.443 207.125 166.571 207.507 169.414C207.648 170.451 207.77 171.489 207.871 172.529C207.969 173.495 208.049 174.464 208.111 175.436C208.32 178.652 208.349 181.878 208.198 185.097C208.174 185.686 208.141 186.275 208.101 186.864C215.629 186.684 222.488 182.765 228.979 178.956C230.462 178.086 231.992 177.171 232.954 175.735C233.841 174.325 234.217 172.654 234.018 171.001C234.018 170.767 233.977 170.541 233.945 170.302C233.738 168.937 233.385 167.598 232.89 166.309C230.859 160.818 227.866 155.731 224.05 151.288C222.4 149.365 220.544 147.483 219.775 145.068C219.438 144.015 219.314 142.897 218.973 141.848C217.444 137.302 211.925 135.154 210.036 130.742C209.576 129.688 209.364 128.534 208.792 127.522C208.278 126.68 207.615 125.94 206.835 125.336C206.498 125.056 206.148 124.784 205.803 124.513C202.566 121.98 199.447 119.304 196.447 116.485C195.888 115.961 195.335 115.43 194.788 114.893C194.861 116.975 194.696 119.059 194.295 121.104V121.104Z" fill="#D0CDE1"/>
<path d="M147.874 88.4493C148.537 89.1486 149.256 89.8064 149.96 90.4597L150.149 90.6299L150.896 91.32C152.25 92.4875 153.422 93.8505 154.374 95.3639L154.452 95.4927C156.801 99.693 155.931 104.864 155.277 109.635C154.465 115.58 154.1 121.577 154.185 127.577C154.305 135.858 155.281 144.083 155.3 152.355C155.3 154.232 155.258 156.105 155.175 157.982C155.042 161.032 154.811 164.077 154.535 167.123C154.235 170.463 153.876 173.798 153.54 177.134C153.273 179.715 153.019 182.291 152.807 184.867C152.701 186.201 152.6 187.531 152.517 188.865C152.42 190.429 152.342 191.998 152.296 193.562C152.264 194.556 152.245 195.545 152.245 196.539C152.245 197.105 152.245 197.666 152.245 198.227C152.245 199.304 152.275 200.377 152.333 201.448C152.394 202.825 152.488 204.205 152.614 205.588C152.757 207.092 153.01 208.735 154.07 209.793C154.134 209.857 154.203 209.917 154.272 209.977L155.765 209.793C166.054 208.563 176.441 208.378 186.768 209.241C186.542 207.686 186.335 206.135 186.132 204.576C186.04 203.84 185.948 203.099 185.86 202.358C185.759 201.512 185.662 200.665 185.57 199.819C185.464 198.899 185.367 197.979 185.275 197.059C185.035 194.688 184.825 192.315 184.644 189.942C184.377 186.479 184.174 183.01 184.036 179.535C183.968 177.876 183.916 176.215 183.879 174.553C183.827 172.492 183.802 170.429 183.805 168.365C183.805 166.359 183.822 164.35 183.856 162.338C183.856 161.676 183.884 161.013 183.939 160.356C183.979 159.763 184.06 159.174 184.183 158.594C184.525 157.254 184.988 155.948 185.565 154.692C185.667 154.453 185.763 154.232 185.86 153.979C185.915 153.855 185.966 153.726 186.017 153.602C183.363 151.242 181.475 148.081 179.659 144.971C176.716 139.961 173.703 134.731 173.21 128.943C172.717 123.156 175.596 116.655 181.134 114.889C182.64 114.428 184.234 114.3 185.786 114.028C187.251 113.771 190.305 113.186 192.001 112.137C192.922 113.082 193.843 114.01 194.765 114.921C194.709 113.531 194.369 112.167 193.765 110.914L193.111 110.946C193.164 110.799 193.189 110.642 193.185 110.486C193.185 109.994 192.844 109.437 192.116 108.82C189.946 106.98 186.533 106.571 185.164 104.082C184.593 103.047 184.496 101.814 184.036 100.728C182.714 97.6319 178.918 96.491 176.633 94.0159C174.348 91.5408 173.777 88.0352 171.93 85.2749C170.55 83.2592 168.636 81.6663 166.402 80.6744C166.217 80.587 166.028 80.4996 165.84 80.4214C162.016 78.7882 157.474 78.4155 153.512 78.4247C151.974 78.4247 147.984 78.4707 146.031 79.2482C145.714 79.3613 145.424 79.5382 145.179 79.7681C143.097 82.0315 146.335 86.8115 147.874 88.4493Z" fill="#D0CDE1"/>
<path d="M193.609 110.592C190.05 109.522 186.314 109.169 182.618 109.554C178.922 109.938 175.339 111.053 172.078 112.832C168.761 114.672 165.785 117.239 163.961 120.552C161.22 125.52 161.34 131.51 161.533 137.183C161.63 140.021 161.754 142.961 163.007 145.51C164.458 148.459 167.195 150.483 169.986 152.139C171.735 153.253 173.651 154.081 175.662 154.591C178.757 155.263 181.973 154.692 185.091 154.131C188.482 153.505 192.121 152.751 194.475 150.23C195.857 148.767 196.613 146.867 197.359 145.008C198.431 142.325 199.506 139.644 200.584 136.966C202.449 132.315 203.08 128.446 200.616 123.915C199.496 121.849 198.128 119.917 197.023 117.837C196.47 116.779 194.489 110.863 193.609 110.592Z" fill="#D0CDE1"/>
<path d="M0.000185512 190.121V203.877C9.44979 207.797 19.5865 209.799 29.819 209.765H154.056C154.12 209.83 154.189 209.89 154.258 209.949L155.751 209.765H376.745C395.287 209.765 412.47 204.769 426.562 196.258V175.257L320.277 163.005H320.194L258.299 168.241L242.282 169.621L233.962 170.325L216.743 171.783L207.884 172.533L194.986 173.628L193.171 173.78L183.874 174.567L171.261 175.602L153.526 177.102L123.96 179.609L103.161 181.371L69.0077 184.265L62.5123 184.812L61.8121 184.872L61.204 184.922L52.6265 185.649L43.2105 186.45L42.1187 186.542L0.000185512 190.121Z" fill="#504F60"/>
<path d="M124.841 189.615L258.038 166.911L263.202 192.992L202.145 200.293L183.345 202.644L131.631 192.472L124.841 189.615Z" fill="#9C9CA1"/>
<path d="M193.789 201.337L127.057 188.81C126.723 188.746 126.379 188.757 126.05 188.841C125.721 188.926 125.414 189.082 125.153 189.299C124.891 189.516 124.681 189.788 124.537 190.095C124.393 190.403 124.319 190.739 124.32 191.078V191.078C124.319 191.617 124.507 192.138 124.851 192.553C125.195 192.967 125.674 193.248 126.205 193.346L191.375 205.533L193.789 201.337Z" fill="#9C9CA1"/>
<path d="M164.841 161.943C162.763 161.75 160.658 161.423 158.787 160.503C156.484 159.357 154.692 157.384 152.559 155.93C147.87 152.71 141.595 152.277 136.22 154.127C130.844 155.976 126.357 159.937 123.215 164.666C121.128 167.818 119.562 171.839 121.036 175.317C121.542 176.38 122.179 177.375 122.934 178.279L126.776 183.294C127.506 184.348 128.384 185.292 129.383 186.096C130.821 187.14 132.608 187.568 134.368 187.825C139.043 188.506 143.802 188.12 148.515 188.433C156.609 188.971 164.514 191.575 172.626 191.487C177.288 191.437 181.89 190.498 186.446 189.56L206.609 185.419C210.119 184.702 214.086 183.653 215.739 180.474C216.481 179.043 216.619 177.387 216.707 175.777C216.946 171.342 216.707 166.41 213.63 163.213C210.737 160.213 206.162 159.265 202.707 157.048C198.478 154.329 197.082 155.208 192.623 157.25C183.924 161.185 174.352 162.802 164.841 161.943V161.943Z" fill="#AE6E79"/>
<path opacity="0.05" d="M164.841 161.943C162.763 161.75 160.658 161.423 158.787 160.503C156.484 159.357 154.692 157.384 152.559 155.93C147.87 152.71 141.595 152.277 136.22 154.127C130.844 155.976 126.357 159.937 123.215 164.666C121.128 167.818 119.562 171.839 121.036 175.317C121.542 176.38 122.179 177.375 122.934 178.279L126.776 183.294C127.506 184.348 128.384 185.292 129.383 186.096C130.821 187.14 132.608 187.568 134.368 187.825C139.043 188.506 143.802 188.12 148.515 188.433C156.609 188.971 164.514 191.575 172.626 191.487C177.288 191.437 181.89 190.498 186.446 189.56L206.609 185.419C210.119 184.702 214.086 183.653 215.739 180.474C216.481 179.043 216.619 177.387 216.707 175.777C216.946 171.342 216.707 166.41 213.63 163.213C210.737 160.213 206.162 159.265 202.707 157.048C198.478 154.329 197.082 155.208 192.623 157.25C183.924 161.185 174.352 162.802 164.841 161.943V161.943Z" fill="black"/>
<path d="M83.8695 155.635C89.5264 157.821 95.2156 160.015 101.14 161.317C111.072 163.502 121.464 163.157 131.318 165.655C136.523 166.98 141.697 169.115 147.045 168.683C149.436 168.489 151.744 167.762 154.07 167.21C167.139 163.99 181.996 165.034 192.609 173.315C196.239 176.145 199.211 179.673 201.906 183.436C202.482 184.249 202.872 185.179 203.047 186.16C203.222 187.141 203.178 188.148 202.918 189.11C202.657 190.071 202.188 190.964 201.542 191.723C200.897 192.483 200.091 193.09 199.183 193.502C195.055 195.398 190.634 196.576 186.109 196.985C180.061 197.519 173.985 196.663 167.968 195.807C159.041 194.542 150.108 193.272 141.204 191.851C138.007 191.34 134.81 190.811 131.594 190.406C108.455 187.485 84.8968 191.037 61.6977 188.598C59.3529 188.35 56.9667 188.028 54.8338 187.029C49.4348 184.499 46.763 177.828 47.8778 171.967C48.9926 166.106 53.2952 161.234 58.4731 158.244C62.8125 155.727 67.4929 154.711 72.3252 153.643C76.8121 152.599 79.5485 153.979 83.8695 155.635Z" fill="#AE6E79"/>
<path opacity="0.1" d="M34.2424 120.598C31.6903 123.938 31.1468 128.419 31.4232 132.601C31.6996 136.783 32.6946 140.918 32.842 145.119C33.0447 150.879 31.6535 156.62 31.8884 162.361C32.0542 166.378 33.0078 170.316 34.1364 174.171C35.4678 178.721 37.3933 183.611 41.5992 185.797C47.1825 188.699 58.8926 187.066 64.766 189.339C64.2317 186.013 59.1091 181.196 58.5747 177.87C58.2062 175.57 57.833 173.205 58.2292 170.9C58.7359 167.96 60.4634 165.352 62.5134 163.18C65.7749 159.725 70.0314 157.126 74.7072 156.28C79.3829 155.433 90.8304 156.128 94.571 159.077C95.0317 156.031 86.4633 153.096 83.4506 152.438C81.9488 152.102 80.2259 152.291 79.0236 151.339C76.7203 149.535 78.3925 145.942 78.2819 143.058C78.1944 140.757 76.8492 138.65 76.5774 136.35C76.1168 132.67 78.5215 128.92 77.5771 125.309C77.227 123.975 76.4485 122.801 75.9095 121.532C74.2695 117.644 74.9882 113.209 75.8634 109.078C76.407 106.483 76.9368 103.557 75.4903 101.345C74.1498 99.279 70.3447 106.635 67.9077 106.295C59.8599 105.168 52.5769 99.2099 46.0769 104.086C42.7647 106.571 42.3317 109.147 41.0096 112.694C39.7243 116.071 36.3937 117.801 34.2424 120.598Z" fill="black"/>
<path d="M32.8596 120.598C30.3075 123.938 29.7639 128.419 30.0403 132.601C30.3167 136.783 31.3117 140.918 31.4591 145.119C31.6618 150.879 30.2706 156.62 30.5056 162.361C30.6714 166.378 31.625 170.316 32.7536 174.171C34.0849 178.721 36.0105 183.611 40.2164 185.797C45.7996 188.7 57.5097 187.066 63.3832 189.339C62.8488 186.013 57.7262 181.196 57.1919 177.87C56.8233 175.57 56.4502 173.205 56.8464 170.9C57.3531 167.96 59.0806 165.352 61.1306 163.18C64.3921 159.725 68.6486 157.126 73.3243 156.28C78.0001 155.433 89.4476 156.128 93.1882 159.077C93.6488 156.031 85.0805 153.096 82.0678 152.438C80.566 152.102 78.8431 152.291 77.6408 151.339C75.3374 149.535 77.0096 145.942 76.8991 143.058C76.8116 140.757 75.4664 138.65 75.1946 136.35C74.734 132.67 77.1386 128.92 76.1943 125.309C75.8442 123.975 75.0657 122.801 74.5267 121.532C72.8867 117.644 73.6053 113.209 74.4806 109.078C75.0242 106.483 75.554 103.557 74.1075 101.345C72.7669 99.279 70.1457 98.4969 67.7088 98.1518C59.5496 97.0497 51.2825 99.1798 44.6756 104.087C41.3634 106.571 40.9304 109.147 39.6083 112.694C38.3415 116.071 35.0109 117.801 32.8596 120.598Z" fill="#D0CDE1"/>
<path d="M337.668 98.8005L312.622 191.244C312.314 192.376 311.669 193.388 310.771 194.145C309.873 194.902 308.766 195.368 307.596 195.481L194.862 206.296C193.943 206.385 193.017 206.252 192.16 205.91C191.303 205.567 190.541 205.024 189.937 204.327C189.334 203.629 188.906 202.797 188.691 201.901C188.475 201.005 188.478 200.07 188.698 199.175L216.126 87.6672C216.453 86.3418 217.239 85.1748 218.346 84.3738C219.452 83.5727 220.807 83.1895 222.17 83.2921L332.541 91.5362C333.388 91.602 334.211 91.8537 334.95 92.2734C335.688 92.6931 336.325 93.2704 336.815 93.9642C337.305 94.658 337.635 95.4512 337.783 96.2872C337.93 97.1231 337.891 97.9813 337.668 98.8005V98.8005Z" fill="#9C9CA1"/>
<path d="M114.195 116.839C107.351 116.839 101.803 111.227 101.803 104.303C101.803 97.3791 107.351 91.7664 114.195 91.7664C121.039 91.7664 126.587 97.3791 126.587 104.303C126.587 111.227 121.039 116.839 114.195 116.839Z" fill="white"/>
<path d="M104.018 81.4334C104.018 81.4334 101.406 89.1899 109.113 92.4517L110.099 94.1723L105.271 98.9292C105.271 98.9292 99.3196 88.0858 99.9645 84.2351C99.9645 84.2351 100.886 80.3247 104.018 81.4334Z" fill="white"/>
<path d="M112.772 116.839C106.172 116.839 100.822 111.496 100.822 104.905C100.822 98.3145 106.172 92.9716 112.772 92.9716C119.371 92.9716 124.721 98.3145 124.721 104.905C124.721 111.496 119.371 116.839 112.772 116.839Z" fill="#6C63FF"/>
<path d="M99.9054 85.9973L101.803 82.8689L104.567 82.4779C103.978 72.1773 106.654 69.1087 106.654 69.1087L107.276 69.0489L109.985 68.7867L115.08 63.5053V62.0055C107.921 62.8566 103.964 66.2518 101.826 70.2312C98.0489 77.2149 99.9054 85.9973 99.9054 85.9973Z" fill="#6C63FF"/>
<path opacity="0.1" d="M107.253 67.1535V69.0489L109.962 68.7867L115.057 63.5052C115.057 63.5052 107.175 65.2673 107.253 67.1535Z" fill="black" stroke="#4C4981" stroke-miterlimit="10"/>
<path opacity="0.1" d="M99.9053 85.9972L101.803 82.8689V70.2496C98.0488 77.2148 99.9053 85.9972 99.9053 85.9972Z" fill="black" stroke="#4C4981" stroke-miterlimit="10"/>
<path d="M134.853 109.811C131.673 107.978 131.81 101.797 135.158 96.0054C138.507 90.2139 143.798 87.0051 146.978 88.8383C150.157 90.6715 150.02 96.8525 146.672 102.644C143.324 108.435 138.032 111.644 134.853 109.811Z" fill="white"/>
<path d="M139.122 98.3128C135.773 104.105 131.664 107.974 134.842 109.814C138.021 111.654 147.28 110.734 150.629 104.938C153.978 99.1409 150.938 91.136 147.759 89.2958C144.581 87.4555 142.475 92.5069 139.122 98.3128Z" fill="#6C63FF"/>
<path opacity="0.1" d="M109.302 56.586C109.302 75.094 121.984 92.9302 140.517 92.9302C149.417 92.9302 157.953 89.3992 164.247 83.114C170.54 76.8287 174.076 68.3041 174.076 59.4154C174.076 50.5267 170.54 42.002 164.247 35.7168C157.953 29.4315 149.417 25.9005 140.517 25.9005C121.984 25.9189 109.302 38.0735 109.302 56.586Z" fill="black"/>
<path d="M140.517 92.0285C121.982 92.0285 106.957 77.0234 106.957 58.5136C106.957 40.0039 121.982 24.9988 140.517 24.9988C159.051 24.9988 174.076 40.0039 174.076 58.5136C174.076 77.0234 159.051 92.0285 140.517 92.0285Z" fill="#AE6E79"/>
<path d="M143.466 43.6632C139.472 45.1307 137.109 49.2528 133.525 51.5485C128.457 54.7689 121.861 53.9361 116.075 52.3444C112.85 51.4657 109.478 50.3937 106.304 51.3691C105.837 51.5755 105.322 51.6488 104.816 51.5807C104.125 51.3829 103.784 50.6192 103.558 49.9383C99.6335 38.2529 101.398 25.0172 107.322 14.206C108.851 11.418 110.685 8.72213 113.209 6.78531C115.199 5.26254 117.54 4.26423 119.898 3.41313C124.208 1.86714 128.667 0.767961 133.202 0.132949C134.003 -0.0123901 134.821 -0.0387364 135.63 0.0547474C136.74 0.234168 137.735 0.832226 138.726 1.36589C142.967 3.63677 147.672 4.91274 152.481 5.09692C158.93 5.34075 166.301 3.82257 171.271 7.95385C177.26 12.9086 175.768 22.5743 179.651 29.3003C182.221 33.749 187.178 36.9786 187.994 42.0438C188.206 43.5919 188.107 45.1669 187.703 46.6765C185.805 54.4698 178.251 60.5057 170.198 60.6483C168.962 60.7425 167.723 60.4891 166.623 59.9168C165.903 59.4257 165.266 58.8214 164.739 58.1272C159.465 51.8889 153.43 40.0011 143.466 43.6632Z" fill="#444053"/>
<path opacity="0.1" d="M103.558 46.5476C103.783 47.2285 104.124 47.9922 104.815 48.19C105.321 48.2581 105.836 48.1848 106.303 47.9784C109.477 47.0031 112.868 48.075 116.069 48.9537C121.86 50.5455 128.471 51.3966 133.519 48.1578C137.108 45.8575 139.467 41.7171 143.465 40.2725C153.429 36.5921 159.464 48.4982 164.752 54.7366C165.28 55.4307 165.916 56.0351 166.637 56.5262C167.736 57.0985 168.975 57.3519 170.211 57.2577C178.236 57.115 185.796 51.0792 187.717 43.2859C187.823 42.8258 187.915 42.3657 187.984 41.9057C187.984 41.9471 187.984 41.9839 188.007 42.0253C188.219 43.5735 188.12 45.1484 187.717 46.658C185.819 54.4513 178.259 60.4872 170.211 60.6298C168.975 60.7241 167.736 60.4707 166.637 59.8984C165.916 59.4073 165.28 58.8029 164.752 58.1088C159.464 51.8704 153.429 39.9827 143.465 43.6447C139.467 45.1123 137.108 49.2343 133.519 51.53C128.452 54.7504 121.86 53.9177 116.069 52.3259C112.845 51.4472 109.477 50.3753 106.303 51.3506C105.836 51.557 105.321 51.6303 104.815 51.5622C104.124 51.3644 103.783 50.6007 103.558 49.9198C101.975 45.1385 101.275 40.1096 101.494 35.0785C101.63 38.9804 102.325 42.8427 103.558 46.5476V46.5476Z" fill="black"/>
</svg>
