<svg width="174" height="32" viewBox="0 0 174 32" fill="none" xmlns="http://www.w3.org/2000/svg">
<rect width="174" height="32" fill="#F2F2F2"/>
<path d="M8.20509 26.784C8.46109 26.784 8.66109 26.848 8.80509 26.976C8.96509 27.12 9.04509 27.312 9.04509 27.552C9.04509 27.808 8.96509 28 8.80509 28.128C8.66109 28.256 8.46109 28.32 8.20509 28.32H6.54909C5.76509 28.32 5.16509 28.104 4.74909 27.672C4.33309 27.256 4.12509 26.656 4.12509 25.872V20.424C4.12509 19.768 3.99709 19.288 3.74109 18.984C3.50109 18.68 3.06909 18.512 2.44509 18.48C2.17309 18.464 1.96509 18.384 1.82109 18.24C1.67709 18.096 1.60509 17.912 1.60509 17.688C1.60509 17.464 1.67709 17.28 1.82109 17.136C1.96509 16.992 2.17309 16.912 2.44509 16.896C3.06909 16.864 3.50109 16.704 3.74109 16.416C3.99709 16.112 4.12509 15.632 4.12509 14.976V9.528C4.12509 8.744 4.33309 8.144 4.74909 7.728C5.16509 7.296 5.76509 7.08 6.54909 7.08H8.20509C8.46109 7.08 8.66109 7.144 8.80509 7.272C8.96509 7.4 9.04509 7.592 9.04509 7.848C9.04509 8.088 8.96509 8.28 8.80509 8.424C8.66109 8.552 8.46109 8.616 8.20509 8.616H7.07709C6.38909 8.616 6.04509 8.976 6.04509 9.696V15.168C6.04509 15.872 5.86909 16.44 5.51709 16.872C5.18109 17.304 4.77309 17.576 4.29309 17.688C4.77309 17.8 5.18109 18.072 5.51709 18.504C5.86909 18.936 6.04509 19.504 6.04509 20.208V25.704C6.04509 26.424 6.38909 26.784 7.07709 26.784H8.20509ZM24.6067 24.216C22.9747 24.216 21.5427 23.864 20.3107 23.16C19.0947 22.456 18.1587 21.448 17.5027 20.136C16.8467 18.824 16.5187 17.288 16.5187 15.528C16.5187 13.768 16.8467 12.24 17.5027 10.944C18.1587 9.632 19.0947 8.624 20.3107 7.92C21.5427 7.216 22.9747 6.864 24.6067 6.864C25.6627 6.864 26.6547 7.024 27.5827 7.344C28.5107 7.648 29.3347 8.096 30.0547 8.688C30.2627 8.848 30.4067 9.016 30.4867 9.192C30.5667 9.368 30.6067 9.584 30.6067 9.84C30.6067 10.192 30.5107 10.488 30.3187 10.728C30.1267 10.968 29.8947 11.088 29.6227 11.088C29.3027 11.088 28.9747 10.976 28.6387 10.752C27.9507 10.24 27.3107 9.888 26.7187 9.696C26.1267 9.488 25.4707 9.384 24.7507 9.384C23.0867 9.384 21.8227 9.904 20.9587 10.944C20.1107 11.984 19.6867 13.512 19.6867 15.528C19.6867 17.56 20.1107 19.096 20.9587 20.136C21.8227 21.176 23.0867 21.696 24.7507 21.696C25.4387 21.696 26.0707 21.592 26.6467 21.384C27.2387 21.176 27.9027 20.824 28.6387 20.328C28.7987 20.232 28.9587 20.152 29.1187 20.088C29.2787 20.024 29.4467 19.992 29.6227 19.992C29.8947 19.992 30.1267 20.112 30.3187 20.352C30.5107 20.592 30.6067 20.888 30.6067 21.24C30.6067 21.48 30.5667 21.696 30.4867 21.888C30.4067 22.064 30.2627 22.232 30.0547 22.392C29.3347 22.984 28.5107 23.44 27.5827 23.76C26.6547 24.064 25.6627 24.216 24.6067 24.216ZM40.5436 24.216C38.8956 24.216 37.4636 23.864 36.2476 23.16C35.0476 22.456 34.1196 21.448 33.4636 20.136C32.8076 18.824 32.4796 17.288 32.4796 15.528C32.4796 13.768 32.7996 12.24 33.4396 10.944C34.0956 9.632 35.0316 8.624 36.2476 7.92C37.4636 7.216 38.8956 6.864 40.5436 6.864C42.1916 6.864 43.6156 7.216 44.8156 7.92C46.0316 8.624 46.9596 9.632 47.5996 10.944C48.2556 12.24 48.5836 13.768 48.5836 15.528C48.5836 17.288 48.2556 18.824 47.5996 20.136C46.9436 21.448 46.0076 22.456 44.7916 23.16C43.5916 23.864 42.1756 24.216 40.5436 24.216ZM40.5436 21.744C42.0956 21.744 43.3036 21.208 44.1676 20.136C45.0476 19.064 45.4876 17.528 45.4876 15.528C45.4876 13.528 45.0476 12 44.1676 10.944C43.3036 9.872 42.0956 9.336 40.5436 9.336C38.9756 9.336 37.7516 9.872 36.8716 10.944C36.0076 12 35.5756 13.528 35.5756 15.528C35.5756 17.528 36.0076 19.064 36.8716 20.136C37.7516 21.208 38.9756 21.744 40.5436 21.744ZM53.1987 24C52.7347 24 52.3667 23.872 52.0947 23.616C51.8387 23.36 51.7107 23 51.7107 22.536V8.544C51.7107 8.08 51.8387 7.72 52.0947 7.464C52.3667 7.208 52.7347 7.08 53.1987 7.08H57.9507C60.7187 7.08 62.8627 7.824 64.3827 9.312C65.9187 10.784 66.6867 12.856 66.6867 15.528C66.6867 18.216 65.9187 20.304 64.3827 21.792C62.8627 23.264 60.7187 24 57.9507 24H53.1987ZM57.7587 21.48C61.6467 21.48 63.5907 19.496 63.5907 15.528C63.5907 11.576 61.6467 9.6 57.7587 9.6H54.8067V21.48H57.7587ZM71.2925 24C70.8285 24 70.4605 23.872 70.1885 23.616C69.9325 23.36 69.8045 23 69.8045 22.536V8.544C69.8045 8.08 69.9325 7.72 70.1885 7.464C70.4605 7.208 70.8285 7.08 71.2925 7.08H79.9565C80.4205 7.08 80.7805 7.184 81.0365 7.392C81.2925 7.6 81.4205 7.896 81.4205 8.28C81.4205 8.68 81.2925 8.992 81.0365 9.216C80.7805 9.424 80.4205 9.528 79.9565 9.528H72.8285V14.184H79.4765C79.9405 14.184 80.3005 14.288 80.5565 14.496C80.8125 14.704 80.9405 15.008 80.9405 15.408C80.9405 15.792 80.8125 16.088 80.5565 16.296C80.3005 16.504 79.9405 16.608 79.4765 16.608H72.8285V21.552H79.9565C80.4205 21.552 80.7805 21.664 81.0365 21.888C81.2925 22.096 81.4205 22.4 81.4205 22.8C81.4205 23.184 81.2925 23.48 81.0365 23.688C80.7805 23.896 80.4205 24 79.9565 24H71.2925ZM171.565 16.896C171.837 16.912 172.045 16.992 172.189 17.136C172.333 17.28 172.405 17.464 172.405 17.688C172.405 17.912 172.333 18.096 172.189 18.24C172.045 18.384 171.837 18.464 171.565 18.48C170.941 18.512 170.509 18.68 170.269 18.984C170.029 19.272 169.909 19.752 169.909 20.424L169.885 25.872C169.885 26.656 169.677 27.256 169.261 27.672C168.845 28.104 168.245 28.32 167.461 28.32H165.805C165.549 28.32 165.341 28.256 165.181 28.128C165.037 28 164.965 27.808 164.965 27.552C164.965 27.312 165.037 27.12 165.181 26.976C165.341 26.848 165.549 26.784 165.805 26.784H166.909C167.613 26.784 167.965 26.424 167.965 25.704V20.208C167.965 19.504 168.133 18.936 168.469 18.504C168.821 18.072 169.237 17.8 169.717 17.688C169.237 17.576 168.821 17.304 168.469 16.872C168.133 16.44 167.965 15.872 167.965 15.168V9.696C167.965 8.976 167.613 8.616 166.909 8.616H165.805C165.549 8.616 165.341 8.552 165.181 8.424C165.037 8.28 164.965 8.088 164.965 7.848C164.965 7.592 165.037 7.4 165.181 7.272C165.341 7.144 165.549 7.08 165.805 7.08H167.461C168.245 7.08 168.845 7.296 169.261 7.728C169.677 8.144 169.885 8.744 169.885 9.528V14.976C169.885 15.632 170.005 16.112 170.245 16.416C170.501 16.704 170.941 16.864 171.565 16.896Z" fill="black"/>
<path d="M111.285 8.088C111.429 7.704 111.645 7.416 111.933 7.224C112.237 7.016 112.573 6.912 112.941 6.912C113.405 6.912 113.797 7.056 114.117 7.344C114.453 7.632 114.621 8.024 114.621 8.52C114.621 8.76 114.573 9.024 114.477 9.312L109.485 22.968C109.341 23.352 109.085 23.656 108.717 23.88C108.365 24.088 107.973 24.192 107.541 24.192C107.109 24.192 106.717 24.088 106.365 23.88C106.013 23.656 105.765 23.352 105.621 22.968L102.045 12.864L98.3729 22.968C98.2289 23.352 97.9809 23.656 97.6289 23.88C97.2769 24.088 96.8849 24.192 96.4529 24.192C96.0369 24.192 95.6449 24.088 95.2769 23.88C94.9249 23.656 94.6769 23.352 94.5329 22.968L89.5409 9.312C89.4449 9.04 89.3969 8.784 89.3969 8.544C89.3969 8.048 89.5729 7.656 89.9249 7.368C90.2769 7.064 90.6929 6.912 91.1729 6.912C91.5569 6.912 91.9009 7.016 92.2049 7.224C92.5249 7.416 92.7569 7.704 92.9009 8.088L96.5969 18.72L100.437 8.136C100.581 7.752 100.805 7.456 101.109 7.248C101.429 7.04 101.765 6.936 102.117 6.936C102.485 6.936 102.821 7.04 103.125 7.248C103.429 7.456 103.653 7.76 103.797 8.16L107.469 18.912L111.285 8.088ZM131.155 21.72C131.283 22.008 131.347 22.264 131.347 22.488C131.347 22.936 131.163 23.32 130.795 23.64C130.443 23.944 130.035 24.096 129.571 24.096C129.267 24.096 128.979 24.016 128.707 23.856C128.435 23.68 128.227 23.424 128.083 23.088L126.811 20.256H118.675L117.403 23.088C117.259 23.424 117.051 23.68 116.779 23.856C116.523 24.016 116.235 24.096 115.915 24.096C115.451 24.096 115.035 23.944 114.667 23.64C114.299 23.32 114.115 22.936 114.115 22.488C114.115 22.264 114.179 22.008 114.307 21.72L120.787 8.112C120.963 7.728 121.227 7.44 121.579 7.248C121.931 7.04 122.307 6.936 122.707 6.936C123.123 6.936 123.507 7.04 123.859 7.248C124.211 7.456 124.483 7.744 124.675 8.112L131.155 21.72ZM125.539 17.424L122.755 11.184L119.947 17.424H125.539ZM135.162 24C134.602 24 134.17 23.848 133.866 23.544C133.562 23.24 133.41 22.808 133.41 22.248V8.808C133.41 8.248 133.578 7.8 133.914 7.464C134.25 7.128 134.706 6.96 135.282 6.96C135.858 6.96 136.314 7.128 136.65 7.464C136.986 7.8 137.154 8.248 137.154 8.808V20.952H143.298C144.466 20.952 145.05 21.464 145.05 22.488C145.05 23.496 144.466 24 143.298 24H135.162ZM148.686 24C148.126 24 147.694 23.848 147.39 23.544C147.086 23.24 146.934 22.808 146.934 22.248V8.808C146.934 8.248 147.102 7.8 147.438 7.464C147.774 7.128 148.23 6.96 148.806 6.96C149.382 6.96 149.838 7.128 150.174 7.464C150.51 7.8 150.678 8.248 150.678 8.808V20.952H156.822C157.99 20.952 158.574 21.464 158.574 22.488C158.574 23.496 157.99 24 156.822 24H148.686Z" fill="#6C63FF"/>
</svg>
