<svg width="19" height="19" viewBox="0 0 19 19" fill="none" xmlns="http://www.w3.org/2000/svg">
<path d="M9.5 19C4.26149 19 0 14.7385 0 9.5C0 4.26149 4.26149 0 9.5 0C14.7385 0 19 4.26149 19 9.5C19 14.7385 14.7385 19 9.5 19ZM9.5 1.1875C4.91627 1.1875 1.1875 4.91627 1.1875 9.5C1.1875 14.0837 4.91627 17.8125 9.5 17.8125C14.0837 17.8125 17.8125 14.0837 17.8125 9.5C17.8125 4.91627 14.0837 1.1875 9.5 1.1875Z" fill="white"/>
<path d="M14.0881 10.3636H5.77557C5.44782 10.3636 5.18182 9.97672 5.18182 9.49999C5.18182 9.02326 5.44782 8.63635 5.77557 8.63635H14.0881C14.4158 8.63635 14.6818 9.02326 14.6818 9.49999C14.6818 9.97672 14.4158 10.3636 14.0881 10.3636Z" fill="white"/>
<path d="M9.49999 14.6818C9.02326 14.6818 8.63635 14.4158 8.63635 14.0881V5.77557C8.63635 5.44782 9.02326 5.18182 9.49999 5.18182C9.97672 5.18182 10.3636 5.44782 10.3636 5.77557V14.0881C10.3636 14.4158 9.97672 14.6818 9.49999 14.6818Z" fill="white"/>
</svg>
