<svg width="33" height="33" viewBox="0 0 33 33" fill="none" xmlns="http://www.w3.org/2000/svg">
<path d="M16.5 0C25.5979 0 33 7.40205 33 16.5C33 25.5979 25.5979 33 16.5 33C7.40205 33 0 25.5979 0 16.5C0 7.40205 7.40205 0 16.5 0Z" fill="black"/>
<path d="M16.5 1.46667C8.21057 1.46667 1.46666 8.09944 1.46666 16.2522C1.46666 19.4976 2.54791 22.4923 4.35722 24.9333C4.51526 24.8322 4.67144 24.74 4.82994 24.6596C7.5686 23.2768 11.8168 21.6288 16.5 21.6288C21.1832 21.6288 25.4314 23.2768 28.1707 24.6603C28.3287 24.7404 28.4847 24.8323 28.6427 24.9333C30.452 22.4922 31.5333 19.4976 31.5333 16.2522C31.5333 8.09944 24.7894 1.46667 16.5 1.46667Z" fill="#E6E6E6"/>
<path d="M16.5 31.5334C21.0288 31.5334 25.0886 29.5729 27.8667 26.4871C27.7875 26.4403 27.7076 26.3894 27.6293 26.3499C25.005 25.0343 20.9438 23.4667 16.5 23.4667C12.0563 23.4667 7.99515 25.0343 5.37152 26.3493C5.29277 26.389 5.21273 26.44 5.13334 26.487C7.91149 29.5728 11.9713 31.5334 16.5 31.5334Z" fill="#FC9465"/>
<path d="M16.5 20.5333C11.8424 20.5333 8.06665 16.9218 8.06665 12.4667C8.06665 8.01156 11.8424 4.39999 16.5 4.39999C21.1576 4.39999 24.9333 8.01156 24.9333 12.4667C24.9333 16.9218 21.1576 20.5333 16.5 20.5333Z" fill="black"/>
<path d="M16.5 19.0667C12.6524 19.0667 9.53333 15.9476 9.53333 12.1C9.53333 8.25241 12.6524 5.13333 16.5 5.13333C20.3476 5.13333 23.4667 8.25241 23.4667 12.1C23.4667 15.9476 20.3476 19.0667 16.5 19.0667Z" fill="#FC8651"/>
</svg>
